<svg width="80" height="80" viewBox="0 0 80 80" fill="none" xmlns="http://www.w3.org/2000/svg">
    <rect width="80" height="80" rx="15" fill="white"/>
    <g clip-path="url(#clip0)">
        <path d="M9 9.60468H81V81.6047H9V9.60468Z" fill="#42ADE2"/>
        <path d="M9 68.1047H81V81.6047H9V68.1047Z" fill="#428BC1"/>
        <path d="M81 42.1172V39.8672C75.6 39.3047 70.7625 36.4922 67.5 32.4422V20.8547H60.75V32.4422C57.0375 37.0547 51.4125 39.9797 45 39.9797C38.5875 39.9797 32.9625 37.0547 29.25 32.4422V20.8547H22.5V32.4422C19.2375 36.4922 14.4 39.3047 9 39.8672V42.1172C10.9125 41.8922 12.825 41.4422 14.625 40.7672V47.8547H9V54.6047H19.125L20.475 61.3547H22.5V68.1047H29.25V61.3547H31.275L32.625 54.6047H57.375L58.725 61.3547H60.75V68.1047H67.5V61.3547H69.525L70.875 54.6047H81V47.8547H75.375V40.7672C77.175 41.4422 79.0875 41.8922 81 42.1172ZM60.75 35.7047V41.1047C60.75 44.4797 58.275 47.1797 55.125 47.7422V39.7547C57.15 38.7422 59.0625 37.3922 60.75 35.7047ZM34.875 39.7547V47.7422C31.725 47.1797 29.25 44.4797 29.25 41.1047V35.7047C30.9375 37.3922 32.7375 38.7422 34.875 39.7547ZM22.5 35.8172V41.1047C22.5 44.4797 20.025 47.1797 16.875 47.7422V39.7547C19.0125 38.7422 20.8125 37.3922 22.5 35.8172ZM37.125 47.8547V40.7672C39.2625 41.5547 41.5125 42.0047 43.875 42.1172V47.7422H37.125V47.8547ZM46.125 47.8547V42.2297C48.4875 42.1172 50.7375 41.6672 52.875 40.8797V47.8547H46.125ZM73.125 47.7422C69.975 47.1797 67.5 44.4797 67.5 41.1047V35.8172C69.1875 37.3922 71.1 38.7422 73.125 39.8672V47.7422Z" fill="#3E4347"/>
        <path d="M45 32.1047C49.9706 32.1047 54 28.0752 54 23.1047C54 18.1341 49.9706 14.1047 45 14.1047C40.0294 14.1047 36 18.1341 36 23.1047C36 28.0752 40.0294 32.1047 45 32.1047Z" fill="white"/>
        <path d="M48.375 21.9797C49.6176 21.9797 50.625 20.9723 50.625 19.7297C50.625 18.487 49.6176 17.4797 48.375 17.4797C47.1324 17.4797 46.125 18.487 46.125 19.7297C46.125 20.9723 47.1324 21.9797 48.375 21.9797Z" fill="#D0D0D0"/>
        <path d="M41.625 28.7297C42.8676 28.7297 43.875 27.7223 43.875 26.4797C43.875 25.237 42.8676 24.2297 41.625 24.2297C40.3824 24.2297 39.375 25.237 39.375 26.4797C39.375 27.7223 40.3824 28.7297 41.625 28.7297Z" fill="#D0D0D0"/>
        <path d="M41.625 20.8547C42.2463 20.8547 42.75 20.351 42.75 19.7297C42.75 19.1084 42.2463 18.6047 41.625 18.6047C41.0037 18.6047 40.5 19.1084 40.5 19.7297C40.5 20.351 41.0037 20.8547 41.625 20.8547Z" fill="#D0D0D0"/>
        <path d="M48.375 27.6047C48.9963 27.6047 49.5 27.101 49.5 26.4797C49.5 25.8584 48.9963 25.3547 48.375 25.3547C47.7537 25.3547 47.25 25.8584 47.25 26.4797C47.25 27.101 47.7537 27.6047 48.375 27.6047Z" fill="#D0D0D0"/>
        <path d="M54 69.2297C54 69.9047 53.4375 70.3547 52.875 70.3547H37.125C36.45 70.3547 36 69.9047 36 69.2297C36 68.6672 36.45 68.1047 37.125 68.1047H52.875C53.4375 68.1047 54 68.6672 54 69.2297Z" fill="white"/>
        <path d="M51.75 73.7297C51.75 74.4047 51.1875 74.8547 50.625 74.8547H39.375C38.7 74.8547 38.25 74.4047 38.25 73.7297C38.25 73.1672 38.7 72.6047 39.375 72.6047H50.625C51.1875 72.6047 51.75 73.1672 51.75 73.7297Z" fill="white"/>
        <path d="M49.5 78.2297C49.5 77.6672 48.9375 77.1047 48.375 77.1047H41.625C40.95 77.1047 40.5 77.6672 40.5 78.2297C40.5 78.9047 40.95 79.3547 41.625 79.3547H48.375C48.9375 79.3547 49.5 78.9047 49.5 78.2297Z" fill="white"/>
        <path d="M12.0375 15.2027L13.1524 14.0889L14.2661 15.2049L13.1501 16.3176L12.0375 15.2027Z" fill="white"/>
        <path d="M15.8411 26.0331L16.9559 24.9205L18.0697 26.0353L16.9537 27.1491L15.8411 26.0331Z" fill="white"/>
        <path d="M30.9183 14.6627L32.0332 13.55L33.1458 14.6649L32.0321 15.7775L30.9183 14.6627Z" fill="white"/>
        <path d="M52.875 31.6592L53.9899 30.5454L55.1025 31.6614L53.9888 32.774L52.875 31.6592Z" fill="white"/>
        <path d="M73.323 14.6447L74.4368 13.5309L75.5505 14.6458L74.4356 15.7596L73.323 14.6447Z" fill="white"/>
        <path d="M76.0309 59.5434L77.1458 58.4297L78.2584 59.5457L77.1446 60.6583L76.0309 59.5434Z" fill="white"/>
        <path d="M49.5112 63.6047L50.625 62.491L51.7376 63.6058L50.6239 64.7196L49.5112 63.6047Z" fill="white"/>
        <path d="M39.3638 59.5626L40.4786 58.45L41.5924 59.5648L40.4764 60.6786L39.3638 59.5626Z" fill="white"/>
        <path d="M14.733 63.1502L15.8479 62.0376L16.9605 63.1525L15.8457 64.2662L14.733 63.1502Z" fill="white"/>
        <path d="M69.4091 24.196L70.5228 23.0845L71.6366 24.1982L70.5217 25.312L69.4091 24.196Z" fill="white"/>
        <path d="M75.5853 29.3754L76.7002 28.2628L77.8139 29.3777L76.6979 30.4914L75.5853 29.3754Z" fill="white"/>
    </g>
    <defs>
        <clipPath id="clip0">
            <rect x="-2" y="0" width="75" height="75" rx="10" fill="white"/>
        </clipPath>
    </defs>
</svg>
