<svg width="80" height="80" viewBox="0 0 80 80" fill="none" xmlns="http://www.w3.org/2000/svg">
    <rect width="80" height="80" rx="15" fill="white"/>
    <g clip-path="url(#clip0)">
        <path d="M0 0H72V72H0V0Z" fill="#D6EEF0"/>
        <path d="M0 16.875L4.5 12.375L11.8125 7.875L24.75 18L42.75 41.625H0V16.875Z" fill="#B2C1C0"/>
        <path opacity="0.5" d="M42.75 41.625L24.75 18L11.8125 7.875L10.125 15.75L14.625 20.25L13.5 27L18 31.5L15.75 41.625H42.75Z" fill="#B2C1C0"/>
        <path d="M11.8125 7.875L4.5 12.375L2.25 14.625H5.625L3.9375 19.2375L9 16.875L10.125 22.5L14.625 20.25L19.0125 22.5V18.5625L24.75 18L11.8125 7.875Z" fill="white"/>
        <path opacity="0.5" d="M42.75 41.625L24.75 18L11.8125 7.875L11.25 13.5L14.625 20.25L13.5 27L18 31.5L15.75 41.625H42.75Z" fill="#B2C1C0"/>
        <path d="M56.475 38.8125C52.875 37.2375 49.05 36 45 36C40.95 36 37.35 37.9125 34.2 38.7C15.75 43.5375 0 36 0 36V72H72V40.8375C67.05 41.4 61.65 40.725 56.475 38.8125Z" fill="#83BF4F"/>
        <path d="M5.625 55.125C8.11028 55.125 10.125 53.1103 10.125 50.625C10.125 48.1397 8.11028 46.125 5.625 46.125C3.13972 46.125 1.125 48.1397 1.125 50.625C1.125 53.1103 3.13972 55.125 5.625 55.125Z" fill="#699635"/>
        <path d="M6.75 48.375C8.61396 48.375 10.125 46.864 10.125 45C10.125 43.136 8.61396 41.625 6.75 41.625C4.88604 41.625 3.375 43.136 3.375 45C3.375 46.864 4.88604 48.375 6.75 48.375Z" fill="#699635"/>
        <path d="M13.725 55.125C17.4529 55.125 20.475 52.1029 20.475 48.375C20.475 44.6471 17.4529 41.625 13.725 41.625C9.99708 41.625 6.97501 44.6471 6.97501 48.375C6.97501 52.1029 9.99708 55.125 13.725 55.125Z" fill="#699635"/>
        <path d="M62.775 38.025H65.8125V47.25H62.775V38.025Z" fill="#89664C"/>
        <path d="M66.825 25.7625C65.475 23.175 63.225 23.175 61.875 25.7625L57.15 34.5375C55.8 37.125 57.15 39.15 60.1875 39.15C60.1875 39.15 63.225 38.025 64.35 38.025C65.475 38.025 68.5125 39.15 68.5125 39.15C71.55 39.15 72.9 37.125 71.55 34.5375L66.825 25.7625Z" fill="#699635"/>
        <path d="M66.2625 20.7C65.1375 18.675 63.45 18.675 62.325 20.7L58.6125 27.7875C57.4875 29.8125 58.6125 31.5 61.0875 31.5C61.0875 31.5 63.5625 30.375 64.35 30.375C65.1375 30.375 67.6125 31.5 67.6125 31.5C69.975 31.5 71.1 29.8125 70.0875 27.7875L66.2625 20.7Z" fill="#75A843"/>
        <path d="M65.8125 15.75C65.025 14.175 63.675 14.175 62.8875 15.75L60.075 21.0375C59.2875 22.6125 60.075 23.85 61.875 23.85C61.875 23.85 63.675 22.725 64.35 22.725C65.025 22.725 66.825 23.85 66.825 23.85C68.625 23.85 69.4125 22.6125 68.625 21.0375L65.8125 15.75Z" fill="#83BF4F"/>
        <path d="M38.25 7.875C38.25 9.1125 37.2375 10.125 36 10.125H24.75C23.5125 10.125 22.5 9.1125 22.5 7.875C22.5 6.6375 23.5125 5.625 24.75 5.625H36C37.2375 5.625 38.25 6.6375 38.25 7.875Z" fill="white"/>
        <path d="M42.75 10.125C42.75 11.3625 41.7375 12.375 40.5 12.375H36C34.7625 12.375 33.75 11.3625 33.75 10.125C33.75 8.8875 34.7625 7.875 36 7.875H40.5C41.7375 7.875 42.75 8.8875 42.75 10.125Z" fill="white"/>
        <path d="M47.25 19.125C47.25 20.3625 46.2375 21.375 45 21.375H40.5C39.2625 21.375 38.25 20.3625 38.25 19.125C38.25 17.8875 39.2625 16.875 40.5 16.875H45C46.2375 16.875 47.25 17.8875 47.25 19.125Z" fill="white"/>
        <path d="M58.5 13.5C58.5 14.7375 57.4875 15.75 56.25 15.75H51.75C50.5125 15.75 49.5 14.7375 49.5 13.5C49.5 12.2625 50.5125 11.25 51.75 11.25H56.25C57.4875 11.25 58.5 12.2625 58.5 13.5Z" fill="white"/>
        <path d="M34.65 40.5H54.9L63.225 55.575L60.4125 62.55L43.0875 65.475L34.65 40.5Z" fill="#FFDD7D"/>
        <path d="M27.45 61.875L25.9875 55.4625L34.65 40.5L44.4375 59.175L43.0875 66.6L27.45 61.875Z" fill="#DBB471"/>
        <path d="M34.65 40.5L30.375 62.775L37.2375 64.8L34.65 40.5Z" fill="#89664C"/>
        <path d="M34.65 40.5C34.65 40.5 36.225 54.1125 38.8125 59.175L37.2375 64.8L34.65 40.5Z" fill="#FFDD7D"/>
        <path d="M30.375 62.775L28.8 58.3875C28.8 58.3875 33.8625 45.3375 34.65 40.5L30.375 62.775Z" fill="#FFDD7D"/>
        <path d="M21.375 55.125C23.8603 55.125 25.875 53.1103 25.875 50.625C25.875 48.1397 23.8603 46.125 21.375 46.125C18.8897 46.125 16.875 48.1397 16.875 50.625C16.875 53.1103 18.8897 55.125 21.375 55.125Z" fill="#699635"/>
        <path d="M43.3125 58.0499L63.225 55.575L61.5375 63.675L43.0875 66.6L43.3125 58.0499Z" fill="#DBB471"/>
    </g>
    <defs>
        <clipPath id="clip0">
            <rect x="6" y="6" width="72" height="72" rx="10" fill="white"/>
        </clipPath>
    </defs>
</svg>

